<?xml version="1.0" encoding="iso-8859-1"?>
<!-- Generator: Adobe Illustrator 19.0.0, SVG Export Plug-In . SVG Version: 6.00 Build 0)  -->
<svg version="1.1" xmlns="http://www.w3.org/2000/svg" xmlns:xlink="http://www.w3.org/1999/xlink" x="0px" y="0px"
	 viewBox="0 0 128 128" style="enable-background:new 0 0 128 128;" xml:space="preserve">
<g id="_x39_">
	<path id="XMLID_432_" style="fill:#D7E6F6;" d="M63.968,125.135c-27.239,0-51.416-18.338-58.795-44.596
		c-4.417-15.716-2.45-32.212,5.538-46.449C18.7,19.853,31.752,9.579,47.465,5.161c5.416-1.523,10.99-2.295,16.566-2.295
		c27.239,0,51.416,18.339,58.795,44.596c4.416,15.716,2.45,32.212-5.538,46.449c-7.988,14.237-21.04,24.511-36.753,28.928
		C75.117,124.363,69.544,125.135,63.968,125.135z"/>
	<path id="XMLID_87_" d="M125.584,46.687C117.859,19.198,92.548,0,64.031,0C58.194,0,52.36,0.808,46.69,2.401
		C30.24,7.026,16.576,17.782,8.213,32.687C-0.149,47.593-2.208,64.862,2.416,81.315C10.139,108.802,35.451,128,63.968,128
		c5.836,0,11.67-0.808,17.343-2.401c16.449-4.625,30.114-15.381,38.476-30.285C128.15,80.41,130.208,63.142,125.584,46.687z
		 M113.669,75.726L97.732,86.9L80.604,72.506l-0.186,0.221l0.957-23.853l19.74-12.764l13.702,11.557L113.669,75.726z
		 M27.778,100.031L13.443,76.146l5.777-17.306l22.02,1.364l13.524,20.283l-7.44,20.785L27.778,100.031z M57.034,80.396l22.243-6.253
		L96.183,88.35l-7.119,17.485l-0.032-0.113l-25.149,7.07l-14.589-10.776L57.034,80.396z M68.051,5.9
		c9.144,0.64,17.811,3.451,25.444,7.96l6.312,20.587L80.212,47.118l-22.14-8.192l-6.107-21.732L68.051,5.9z M30.18,16.539
		l19.77,1.269l6.07,21.601L41.266,58.094L19.229,56.73l-6.247-20.805c0.079-0.143,0.149-0.29,0.229-0.432
		C17.483,27.879,23.275,21.455,30.18,16.539z M7.932,79.763c-0.333-1.185-0.614-2.375-0.871-3.568l4.613,1.097l14.179,23.625
		l-0.214,6.839C17.348,100.489,11.056,90.877,7.932,79.763z M79.76,120.08c-5.167,1.451-10.479,2.188-15.792,2.188
		c-1.322,0-2.63-0.076-3.935-0.165l4.441-7.289l25.128-7.065l-0.017-0.062l7.844,4.039C92.124,115.439,86.177,118.276,79.76,120.08z
		 M119.636,81.244l-3.874-5.131l1.164-28.425l2.236-2.219c0.309,0.92,0.64,1.828,0.905,2.77
		C123.154,59.223,122.956,70.604,119.636,81.244z"/>
</g>
<g id="Layer_1">
</g>
</svg>
