<?xml version="1.0" encoding="utf-8"?>
<!-- Generator: Adobe Illustrator 23.0.3, SVG Export Plug-In . SVG Version: 6.00 Build 0)  -->
<svg version="1.1" id="Layer_1" xmlns="http://www.w3.org/2000/svg" xmlns:xlink="http://www.w3.org/1999/xlink" x="0px" y="0px"
	 viewBox="0 0 1024 512" style="enable-background:new 0 0 1024 512;" xml:space="preserve">
<style type="text/css">
	.st0{fill:#606060;}
</style>
<path class="st0" d="M603.6,131.9L479.9,255.6l123.7,124.2c10.7,10.7,10.7,28.1,0,38.8c-10.7,10.7-28,10.7-38.6,0L427.8,280.9
	c-2.5-1.3-5-2.6-7.2-4.8c-5.7-5.7-8.1-13.2-7.7-20.6c-0.3-7.5,2.1-15,7.7-20.7c2.4-2.4,5.1-4,7.9-5.3L564.9,93.3
	c10.7-10.7,28-10.7,38.6,0C614.2,104,614.2,121.3,603.6,131.9z"/>
</svg>
