<?xml version="1.0" standalone="no"?>
<!DOCTYPE svg PUBLIC "-//W3C//DTD SVG 20010904//EN"
 "http://www.w3.org/TR/2001/REC-SVG-20010904/DTD/svg10.dtd">
<svg version="1.0" xmlns="http://www.w3.org/2000/svg"
 width="1200.000000pt" height="680.000000pt" viewBox="0 0 1200.000000 680.000000"
 preserveAspectRatio="xMidYMid meet">
<metadata>
Created by potrace 1.15, written by Peter Selinger 2001-2017
</metadata>
<g transform="translate(0.000000,680.000000) scale(0.100000,-0.100000)"
fill="#000000" stroke="none">
<path d="M0 4685 l0 -2114 127 -138 c406 -441 914 -914 1369 -1275 554 -441
1205 -841 1780 -1093 l146 -65 2615 0 2615 0 106 61 c670 384 1223 938 1502
1504 52 106 135 323 127 331 -1 2 -39 -41 -83 -94 -430 -517 -1007 -920 -1599
-1117 -252 -84 -429 -122 -704 -150 -85 -9 -157 -18 -161 -20 -3 -2 -93 -9
-198 -15 -373 -23 -807 22 -1207 125 -689 178 -1320 512 -1915 1013 -168 142
-517 492 -674 677 -628 737 -1151 1669 -1565 2790 -45 121 -97 261 -116 310
-112 292 -225 774 -286 1224 l-22 161 -929 0 -928 0 0 -2115z"/>
<path d="M2150 6785 c0 -33 52 -401 80 -562 189 -1100 570 -2068 1185 -3003
385 -586 855 -1105 1356 -1499 603 -473 1308 -804 2014 -946 333 -67 461 -80
835 -80 267 1 360 4 459 18 333 48 608 127 816 236 l80 42 -45 -6 c-587 -70
-1254 15 -1780 227 -315 127 -560 275 -890 538 -635 505 -1074 1125 -1359
1919 -252 701 -341 1525 -255 2366 20 196 59 468 89 625 14 69 25 128 25 133
0 4 -587 7 -1305 7 -1146 0 -1305 -2 -1305 -15z"/>
<path d="M4936 6783 c-20 -68 -85 -515 -108 -748 -20 -202 -17 -898 5 -1095
107 -951 413 -1756 927 -2439 401 -533 936 -960 1414 -1129 65 -24 120 -41
122 -40 1 2 -36 35 -84 73 -114 92 -321 293 -437 425 -469 534 -765 1170 -835
1790 -6 58 -19 161 -28 230 -24 180 -23 681 1 875 91 704 330 1347 726 1950
36 55 70 106 74 113 6 9 -172 12 -882 12 -839 0 -890 -1 -895 -17z"/>
<path d="M6882 6718 c-413 -582 -709 -1301 -816 -1983 -47 -300 -60 -740 -31
-1023 29 -278 100 -570 190 -780 48 -112 101 -205 91 -162 -16 77 -28 358 -23
550 14 525 126 1010 332 1438 142 293 229 422 564 836 169 208 481 491 749
679 244 171 585 355 872 472 l135 54 -1002 1 -1002 0 -59 -82z"/>
<path d="M9525 6750 c-717 -184 -1357 -512 -1881 -964 -145 -125 -370 -355
-478 -491 -193 -242 -363 -535 -440 -762 -20 -57 -32 -103 -28 -103 4 1 28 29
54 63 111 148 367 402 559 556 501 404 1088 665 1644 730 50 6 149 18 220 26
667 80 1330 -10 2000 -272 183 -71 526 -240 693 -342 l132 -80 0 845 0 844
-1142 0 -1143 -1 -190 -49z"/>
<path d="M9145 5669 c-366 -30 -726 -121 -960 -243 l-90 -47 60 6 c754 73
1460 -55 2075 -376 143 -75 338 -204 472 -312 56 -45 122 -97 147 -116 171
-128 437 -391 603 -599 183 -229 325 -448 465 -717 l83 -160 0 877 0 876 -82
54 c-419 275 -917 498 -1390 622 -463 122 -957 170 -1383 135z"/>
<path d="M8235 5078 c-2 -7 -6 -65 -8 -128 -4 -131 -17 -189 -46 -209 -14 -9
-21 -24 -21 -46 0 -18 -7 -39 -16 -46 -14 -11 -15 -26 -10 -89 9 -99 29 -122
101 -119 41 3 51 0 53 -15 8 -37 -9 -67 -44 -82 -33 -14 -39 -13 -72 4 -29 15
-38 26 -40 50 -4 35 -6 37 -49 22 l-30 -11 -6 -102 c-4 -56 -16 -182 -27 -280
-24 -204 -23 -206 56 -276 45 -39 50 -41 94 -35 35 5 50 3 56 -7 17 -27 5
-175 -25 -319 -32 -151 -39 -238 -20 -257 8 -8 8 -62 0 -200 -6 -103 -13 -244
-16 -313 -20 -433 -26 -515 -65 -895 -7 -67 -8 -130 -1 -193 8 -79 7 -97 -6
-120 -15 -25 -15 -31 1 -62 24 -51 77 -84 122 -77 39 6 64 25 95 69 16 22 18
34 11 60 -6 24 -5 39 5 54 18 28 30 104 43 282 6 81 25 233 41 338 16 105 32
226 35 270 5 72 65 438 83 509 6 24 9 11 16 -60 9 -104 14 -141 45 -290 23
-108 23 -110 5 -180 -14 -54 -19 -124 -23 -306 -5 -254 7 -454 34 -567 20 -83
33 -92 125 -92 36 0 73 -7 91 -16 48 -25 191 -24 243 1 22 11 40 26 40 33 0 7
-25 23 -55 36 -61 25 -130 66 -146 87 -6 8 -19 59 -30 114 -16 83 -19 142 -18
340 0 162 5 256 14 290 21 81 23 347 5 580 -9 116 -18 266 -19 335 -2 69 -14
185 -26 258 -20 125 -21 138 -7 205 23 112 30 124 77 137 63 17 80 40 79 108
0 63 -9 117 -32 207 -9 33 -21 116 -26 185 -12 146 -15 151 -130 195 -95 36
-133 63 -143 103 -5 17 -15 32 -23 32 -25 0 -25 16 0 50 14 19 25 45 25 58 0
13 11 42 25 65 21 38 24 52 21 128 -4 107 -25 155 -75 177 -75 31 -216 -18
-242 -85 -5 -13 -9 -48 -9 -78 0 -30 -4 -57 -10 -60 -16 -10 -12 -55 9 -99 11
-23 22 -66 25 -96 6 -47 11 -57 37 -72 16 -10 31 -23 33 -30 2 -7 9 -32 15
-55 13 -48 36 -56 66 -23 25 28 46 25 80 -10 35 -36 44 -85 44 -245 1 -141 -8
-255 -20 -255 -5 0 -9 10 -9 23 0 77 -184 511 -241 568 -19 19 -21 19 -49 2
-33 -19 -50 -12 -30 12 10 12 10 22 3 38 -6 12 -11 33 -11 47 -1 14 -10 31
-22 39 -24 16 -26 31 -5 31 20 0 19 13 -3 33 -15 14 -17 31 -15 109 1 51 5
123 8 161 6 63 5 67 -15 67 -11 0 -23 -6 -25 -12z"/>
<path d="M9805 5047 c125 -92 398 -356 536 -517 447 -521 730 -1143 799 -1755
6 -55 19 -156 28 -225 24 -180 24 -680 -1 -875 -68 -528 -224 -1030 -467
-1502 l-89 -173 695 0 694 0 0 1304 0 1304 -36 98 c-116 321 -283 656 -472
949 -370 571 -894 1057 -1394 1295 -89 42 -297 121 -316 120 -4 0 7 -11 23
-23z"/>
<path d="M10764 3593 c31 -104 32 -702 1 -918 -100 -711 -323 -1241 -729
-1731 -28 -34 -82 -101 -121 -150 -182 -231 -500 -521 -794 -723 l-104 -71
706 0 707 0 30 52 c137 234 316 648 405 933 252 812 269 1669 45 2310 -33 95
-135 315 -145 315 -4 0 -4 -8 -1 -17z"/>
<path d="M0 1103 l0 -1103 1543 1 c1338 0 1538 2 1512 14 -16 8 -95 44 -175
79 -225 100 -556 256 -655 310 -592 319 -1255 840 -1973 1551 l-252 250 0
-1102z"/>
</g>
</svg>
